<svg width="28" height="36" viewBox="0 0 28 36" fill="none" xmlns="http://www.w3.org/2000/svg">
<path d="M23.6808 18.8514L19.461 20.2416L17.8708 13.903L17.8601 13.8604L17.8422 13.8204L13.9007 5.01681C13.5065 3.98017 14.0236 2.81803 15.059 2.4181L15.059 2.41811L15.0606 2.41745C16.097 2.01284 17.2676 2.5313 17.6705 3.57217L17.6705 3.57217L17.6715 3.57472L23.6808 18.8514Z" fill="#EF9645" stroke="black"/>
<path d="M19.2385 1.61805L19.2343 1.60973C18.7329 0.614834 17.5178 0.215203 16.5228 0.716175L19.2385 1.61805ZM19.2385 1.61805L19.243 1.62622M19.2385 1.61805L19.243 1.62622M19.243 1.62622L25.0127 12.0839L19.243 1.62622ZM2.4008 21.4237C1.0138 21.4797 -0.0622033 22.6667 0.00279665 24.0567M2.4008 21.4237L14.3788 35.7357C10.3838 36.2727 7.2578 35.4567 4.7298 33.3487M2.4008 21.4237C2.50339 21.4189 2.60483 21.4203 2.70476 21.4276C3.0639 21.6319 3.45344 21.7553 3.84879 21.8002C4.52797 22.2231 4.99458 22.9617 5.0348 23.8217C5.0358 23.8417 5.1468 25.6107 5.9338 27.4607C6.0458 27.7237 6.2638 27.9307 6.5258 28.0437L11.7958 30.3157C11.9638 30.3477 12.1378 30.3237 12.2918 30.2487L14.9658 28.7487L15.1855 29.1978L2.4008 21.4237ZM0.00279665 24.0567C0.0157967 24.3197 0.353796 29.6967 4.7298 33.3487M0.00279665 24.0567L0.502251 24.0333C0.50224 24.0331 0.502229 24.0329 0.502218 24.0326C0.502208 24.0324 0.502197 24.0322 0.502187 24.032L0.00279665 24.0567ZM4.7298 33.3487L5.05016 32.9648C5.05011 32.9648 5.05006 32.9647 5.05001 32.9647L4.7298 33.3487ZM7.83323 17.334C7.83336 17.3339 7.8335 17.3338 7.83364 17.3338L8.0618 17.7787L7.83323 17.334ZM7.83323 17.334C7.76836 17.3673 7.72266 17.4084 7.70781 17.4218C7.68554 17.4419 7.66563 17.4623 7.64973 17.4793C7.61759 17.5137 7.58304 17.5543 7.54894 17.5959C7.47981 17.6804 7.39418 17.7915 7.30025 17.9168C7.11149 18.1684 6.87606 18.4944 6.64625 18.8166C6.41597 19.1394 6.18929 19.4612 6.01761 19.7054C5.99126 19.7428 5.96624 19.7784 5.94272 19.8119C5.88943 19.8877 5.84382 19.9526 5.80772 20.0038C5.78594 20.0347 5.76997 20.0572 5.75882 20.0729C5.7417 20.097 5.73594 20.1051 5.73798 20.103C5.01853 20.9516 3.75023 21.0626 2.89888 20.3494L2.89849 20.3491C2.04361 19.6344 1.93038 18.3619 2.64623 17.5066L2.65484 17.4963L2.66289 17.4856L4.97589 14.3996L4.97682 14.3983C5.03188 14.3244 5.10019 14.2665 5.18388 14.2232L11.0431 11.6608L11.0432 11.6609L11.0551 11.6554C11.502 11.4458 11.7702 11.3882 11.9765 11.3979C12.1765 11.4073 12.3845 11.4827 12.7101 11.6859L12.7193 11.6916L12.7284 11.6967L12.7285 11.6968L12.7286 11.6969L12.7287 11.6969L12.7287 11.697L12.7313 11.6984L12.7444 11.706C12.7567 11.7132 12.7761 11.7246 12.8024 11.7404C12.8549 11.7719 12.935 11.821 13.0416 11.8889C13.2548 12.0249 13.5739 12.2363 13.99 12.5342C14.822 13.13 16.0419 14.0714 17.5774 15.4453L17.5775 15.4454C17.697 15.5522 17.8173 15.6598 17.9381 15.7678C19.2425 16.9339 20.6034 18.1505 21.5867 19.0581L22.8297 20.2054L22.4102 18.5667L21.9258 18.6907L22.4102 18.5666L22.4101 18.5664L22.4099 18.5657L22.4092 18.5627L22.4062 18.551L22.3944 18.5052L22.35 18.3316L22.1912 17.7117C22.0597 17.1986 21.8843 16.5142 21.7085 15.8291C21.5326 15.1441 21.3564 14.4582 21.2232 13.942C21.1566 13.684 21.1008 13.4681 21.0611 13.3158C21.0413 13.2398 21.0253 13.179 21.014 13.1365L21 13.0845L20.9942 13.0638C20.9932 13.0607 20.9914 13.0544 20.989 13.047C20.9879 13.0437 20.9854 13.0362 20.982 13.0269C20.9802 13.0221 20.9757 13.0108 20.9729 13.004C20.9691 12.9953 20.9586 12.9738 20.9491 12.9561L20.9494 12.9559L15.6247 3.41854C15.1292 2.42511 15.5302 1.21659 16.5227 0.716247L7.83323 17.334Z" fill="#FFDC5D" stroke="black"/>
</svg>
